<?xml version="1.0" standalone="no"?>
<!DOCTYPE svg PUBLIC "-//W3C//DTD SVG 20010904//EN"
 "http://www.w3.org/TR/2001/REC-SVG-20010904/DTD/svg10.dtd">
<svg version="1.0" xmlns="http://www.w3.org/2000/svg"
 width="930.000000pt" height="930.000000pt" viewBox="0 0 930.000000 930.000000"
 preserveAspectRatio="xMidYMid meet">
<metadata>
Created by potrace 1.14, written by Peter Selinger 2001-2017
</metadata>
<g transform="translate(0.000000,930.000000) scale(0.100000,-0.100000)"
fill="#000000" stroke="none">
<path d="M4475 8580 c-11 -4 -40 -14 -65 -21 -157 -45 -389 -212 -503 -361
-97 -128 -131 -188 -147 -259 -14 -61 -10 -421 5 -454 8 -17 4 -16 -27 7 -48
37 -82 44 -113 24 -42 -28 -57 -79 -52 -181 7 -120 31 -263 51 -300 9 -16 16
-38 16 -47 0 -10 3 -18 8 -18 4 0 21 -34 37 -76 23 -58 37 -78 59 -90 16 -7
35 -14 42 -14 7 0 15 -8 17 -17 6 -23 25 -102 30 -130 4 -16 -8 -35 -40 -70
-55 -60 -65 -72 -81 -103 -30 -58 -58 -108 -75 -134 -22 -33 -47 -111 -47
-146 0 -14 -7 -36 -16 -48 -10 -14 -18 -56 -22 -109 l-7 -87 -145 -72 c-194
-97 -347 -169 -412 -195 -29 -11 -76 -31 -106 -45 -29 -13 -56 -24 -61 -24 -4
0 -29 -11 -55 -25 -26 -14 -55 -25 -65 -25 -9 0 -21 -4 -26 -8 -6 -5 -37 -19
-70 -32 -63 -24 -141 -58 -211 -91 -23 -10 -50 -19 -61 -19 -10 0 -23 -4 -28
-8 -6 -5 -26 -14 -45 -21 -42 -16 -92 -38 -141 -63 -20 -10 -44 -18 -53 -18
-9 0 -16 -4 -16 -10 0 -5 -7 -10 -17 -10 -9 0 -30 -11 -47 -24 -28 -21 -34
-22 -51 -10 -10 8 -28 14 -39 14 -22 0 -96 -61 -96 -79 0 -6 -8 -18 -18 -28
-39 -37 -77 -185 -88 -338 -3 -33 -9 -113 -13 -178 -8 -101 -12 -120 -30 -136
-12 -10 -21 -24 -21 -30 0 -7 -4 -10 -9 -7 -17 11 -60 -98 -70 -179 -21 -169
-22 -212 -6 -228 8 -9 15 -22 15 -31 0 -17 -60 -116 -70 -116 -4 0 -11 -11
-14 -25 -4 -14 -10 -25 -15 -25 -5 0 -9 -71 -10 -157 0 -133 -3 -167 -20 -213
-13 -35 -20 -80 -21 -126 0 -40 -7 -87 -15 -107 -10 -25 -15 -71 -15 -145 0
-60 -3 -204 -7 -320 -6 -194 -8 -212 -24 -212 -10 0 -21 -4 -24 -10 -3 -5 -19
-10 -35 -10 -16 0 -32 -4 -35 -10 -3 -5 -21 -10 -40 -10 -19 0 -37 -4 -40 -10
-3 -5 -29 -10 -57 -10 -57 0 -125 -17 -149 -37 -8 -7 -22 -13 -31 -13 -8 0
-23 -9 -33 -20 -10 -11 -26 -20 -35 -20 -9 0 -20 -4 -26 -9 -9 -8 -113 -32
-241 -55 -34 -6 -65 -14 -69 -19 -4 -4 -18 -7 -30 -7 -13 0 -33 -4 -46 -9 -13
-5 -41 -14 -63 -21 -47 -14 -94 -33 -148 -61 -22 -10 -45 -19 -53 -19 -8 0
-14 -4 -14 -9 0 -5 -11 -12 -24 -15 -13 -3 -42 -23 -63 -43 -32 -31 -40 -46
-42 -80 -2 -37 2 -47 32 -78 19 -19 40 -35 48 -35 8 0 25 -7 37 -16 32 -22
238 -37 317 -23 74 13 178 62 226 105 12 10 30 18 41 16 10 -2 25 1 31 6 13
11 126 34 165 34 13 0 36 -11 51 -26 15 -14 33 -26 40 -26 9 0 8 -5 -3 -16
-21 -20 -20 -25 6 -80 17 -37 19 -50 10 -65 -7 -10 -12 -28 -12 -38 0 -11 -4
-23 -10 -26 -5 -3 -10 -16 -10 -28 0 -12 -15 -38 -33 -57 -47 -50 -74 -99 -82
-147 -4 -28 -16 -50 -37 -70 -67 -61 -122 -120 -144 -154 -13 -21 -47 -51 -76
-68 -75 -44 -112 -77 -105 -93 4 -11 -10 -20 -48 -32 -33 -10 -72 -33 -100
-59 -45 -40 -47 -45 -52 -109 -6 -77 6 -118 45 -148 34 -27 118 -28 146 -1 12
10 48 34 81 52 33 17 69 37 80 43 11 6 34 21 52 34 17 12 36 22 43 22 6 0 29
15 50 33 22 18 52 40 67 48 15 7 30 16 33 19 15 15 71 50 80 50 5 0 10 3 10 8
0 9 127 142 136 142 3 0 3 -21 -1 -47 -5 -38 -19 -61 -68 -119 -34 -40 -71
-87 -82 -106 -12 -19 -43 -45 -74 -62 -30 -16 -85 -59 -123 -96 -61 -61 -68
-71 -68 -107 0 -50 25 -74 105 -102 l59 -21 3723 0 c3343 0 3729 2 3790 16 37
8 78 22 91 30 29 19 45 59 37 96 -9 37 -104 131 -172 170 -33 19 -66 49 -89
81 -21 29 -59 75 -86 102 -37 39 -51 64 -63 109 -9 32 -14 61 -12 63 2 2 31
-25 63 -59 81 -86 139 -132 279 -220 147 -92 255 -158 262 -158 3 0 16 -9 30
-20 19 -15 41 -20 82 -20 51 0 61 3 87 31 27 29 29 35 29 116 l0 85 -39 34
c-21 18 -67 47 -102 64 -35 17 -64 36 -64 42 0 15 -52 61 -113 101 -26 17 -55
45 -63 61 -18 38 -75 101 -129 143 -32 24 -44 42 -54 81 -7 30 -32 75 -60 113
-28 37 -57 91 -69 128 -20 58 -20 66 -7 98 17 40 20 89 5 98 -5 3 1 16 13 28
20 20 32 22 119 22 64 0 101 -4 110 -13 6 -6 20 -12 30 -12 22 0 109 -41 123
-57 6 -7 35 -22 65 -34 47 -20 74 -23 191 -23 132 -1 145 2 211 35 10 5 24 9
32 9 8 0 28 13 45 29 34 32 41 76 18 120 -16 31 -143 119 -184 127 -18 3 -33
10 -33 15 0 5 -8 9 -18 9 -10 0 -22 4 -27 8 -12 10 -79 30 -200 61 -22 5 -78
17 -125 26 -145 27 -164 33 -290 102 -28 15 -75 28 -125 34 -44 6 -88 15 -97
20 -10 5 -25 9 -35 9 -16 0 -64 14 -114 33 -23 9 -27 19 -38 86 -13 79 -49
194 -63 199 -4 2 -8 51 -8 108 0 68 -7 132 -19 182 -26 106 -41 192 -41 230 0
17 -4 41 -9 54 -48 122 -53 156 -46 322 3 88 7 193 7 231 1 73 -12 171 -26
194 -13 20 -35 215 -36 306 0 45 -7 107 -15 138 -8 32 -15 78 -15 102 0 24 -4
54 -9 67 -10 25 -42 131 -66 217 -8 30 -15 65 -15 78 0 12 -11 35 -24 50 -14
16 -41 47 -61 70 -20 23 -64 56 -98 73 -34 18 -73 38 -87 46 -16 9 -57 14
-113 14 -83 0 -93 2 -151 35 -35 19 -70 35 -78 35 -22 0 -108 39 -108 49 0 5
-15 16 -32 26 -51 26 -99 56 -170 108 -71 50 -101 58 -119 29 -8 -13 -20 -17
-40 -14 -16 2 -29 8 -29 13 0 5 -11 9 -25 9 -28 0 -75 20 -75 32 0 4 -9 8 -20
8 -11 0 -20 5 -20 10 0 6 -10 10 -22 10 -13 0 -41 10 -63 23 -22 12 -59 29
-82 36 -24 8 -43 18 -43 23 0 4 -7 8 -15 8 -8 0 -23 4 -33 9 -34 19 -88 39
-132 52 -56 15 -124 83 -114 114 3 11 8 61 11 112 4 74 2 96 -11 114 -9 13
-16 31 -16 41 0 17 -44 121 -61 142 -47 61 -210 231 -237 248 l-34 21 7 71 c7
70 17 96 38 96 6 0 33 23 59 51 48 51 62 84 74 173 4 26 11 49 15 52 13 8 11
201 -3 326 -9 90 -15 111 -34 129 -28 26 -72 19 -106 -17 -13 -13 -26 -24 -30
-24 -4 0 -5 24 -2 53 17 146 18 134 -20 388 -19 128 -20 131 -81 224 -133 202
-364 357 -625 421 -60 15 -263 18 -295 4z"/>
</g>
</svg>
